<svg xmlns="http://www.w3.org/2000/svg" width="100" height="100" fill="none">
  <rect width="100" height="100" fill="#202020" rx="20"/>
  <path fill="#fff" d="M28.485 70.896c-10.283 0-15.424-3.733-15.424-11.2 0-1.152.128-2.39.384-3.712l.832-4.736h11.52l-.384 2.112a20.625 20.625 0 0 0-.256 3.264c0 1.11.277 2.027.832 2.752.853 1.067 2.261 1.6 4.224 1.6s3.541-.533 4.736-1.6c1.237-1.067 2.112-3.03 2.624-5.888l5.248-29.632h11.456l-5.376 30.528c-.981 5.675-3.115 9.856-6.4 12.544-3.285 2.645-7.957 3.968-14.016 3.968ZM83.963 70H54.779l8.127-46.08h11.52l-6.335 36.096h17.663L83.963 70Z"/>
</svg>